<svg width="63" height="62" viewBox="0 0 63 62" fill="none" xmlns="http://www.w3.org/2000/svg">
<g opacity="0.4">
<path fill-rule="evenodd" clip-rule="evenodd" d="M44.5 52.5C44.5 57.4706 48.5294 61.5 53.5 61.5C58.4706 61.5 62.5 57.4706 62.5 52.5C62.5 47.5294 58.4706 43.5 53.5 43.5C48.5294 43.5 44.5 47.5294 44.5 52.5Z" fill="white"/>
<path fill-rule="evenodd" clip-rule="evenodd" d="M45.5 8.5C45.5 12.9183 49.0817 16.5 53.5 16.5C57.9183 16.5 61.5 12.9183 61.5 8.5C61.5 4.08172 57.9183 0.5 53.5 0.5C49.0817 0.499999 45.5 4.08172 45.5 8.5Z" fill="white"/>
<path fill-rule="evenodd" clip-rule="evenodd" d="M0.5 51.5C0.499999 55.9183 4.08172 59.5 8.5 59.5C12.9183 59.5 16.5 55.9183 16.5 51.5C16.5 47.0817 12.9183 43.5 8.5 43.5C4.08172 43.5 0.5 47.0817 0.5 51.5Z" fill="white"/>
</g>
</svg>
