<svg width="61" height="62" viewBox="0 0 61 62" fill="none" xmlns="http://www.w3.org/2000/svg">
<path fill-rule="evenodd" clip-rule="evenodd" d="M52 18C56.9706 18 61 13.9706 61 9C61 4.02944 56.9706 0 52 0C47.0294 0 43 4.02944 43 9C43 13.9706 47.0294 18 52 18Z" fill="#3164EA"/>
<path fill-rule="evenodd" clip-rule="evenodd" d="M8 17C12.4183 17 16 13.4183 16 9C16 4.58172 12.4183 1 8 1C3.58172 1 0 4.58172 0 9C0 13.4183 3.58172 17 8 17Z" fill="#3164EA"/>
<path fill-rule="evenodd" clip-rule="evenodd" d="M51 62C55.4183 62 59 58.4183 59 54C59 49.5817 55.4183 46 51 46C46.5817 46 43 49.5817 43 54C43 58.4183 46.5817 62 51 62Z" fill="#3164EA"/>
</svg>
