<svg width="102" height="107" viewBox="0 0 102 107" fill="none" xmlns="http://www.w3.org/2000/svg">
<path fill-rule="evenodd" clip-rule="evenodd" d="M95 91C91.134 91 88 94.134 88 98C88 101.866 91.134 105 95 105C98.866 105 102 101.866 102 98C102 94.134 98.866 91 95 91Z" fill="#3164EA"/>
<path fill-rule="evenodd" clip-rule="evenodd" d="M9 89C4.02944 89 1.22135e-06 93.0294 7.86805e-07 98C3.52265e-07 102.971 4.02944 107 9 107C13.9706 107 18 102.971 18 98C18 93.0294 13.9706 89 9 89Z" fill="#3164EA"/>
<path fill-rule="evenodd" clip-rule="evenodd" d="M53 90C48.5817 90 45 93.5817 45 98C45 102.418 48.5817 106 53 106C57.4183 106 61 102.418 61 98C61 93.5817 57.4183 90 53 90Z" fill="#3164EA"/>
<path fill-rule="evenodd" clip-rule="evenodd" d="M10 45C5.58172 45 2 48.5817 2 53C2 57.4183 5.58172 61 10 61C14.4183 61 18 57.4183 18 53C18 48.5817 14.4183 45 10 45Z" fill="#3164EA"/>
<path fill-rule="evenodd" clip-rule="evenodd" d="M53 46C49.134 46 46 49.134 46 53C46 56.866 49.134 60 53 60C56.866 60 60 56.866 60 53C60 49.134 56.866 46 53 46Z" fill="#3164EA"/>
<path fill-rule="evenodd" clip-rule="evenodd" d="M9 -6.11959e-07C5.13401 -9.49935e-07 2 3.13401 2 7C2 10.866 5.13401 14 9 14C12.866 14 16 10.866 16 7C16 3.13401 12.866 -2.73984e-07 9 -6.11959e-07Z" fill="#3164EA"/>
</svg>
