<svg width="111" height="103" viewBox="0 0 111 103" fill="none" xmlns="http://www.w3.org/2000/svg">
<circle cx="79.5" cy="1.5" r="1.5" fill="#3164EA"/>
<circle cx="71.5" cy="71.5" r="1.5" transform="rotate(90 71.5 71.5)" fill="#3164EA"/>
<circle cx="79.5" cy="11.5" r="1.5" fill="#3164EA"/>
<circle cx="61.5" cy="71.5" r="1.5" transform="rotate(90 61.5 71.5)" fill="#3164EA"/>
<circle cx="79.5" cy="21.5" r="1.5" fill="#3164EA"/>
<circle cx="51.5" cy="71.5" r="1.5" transform="rotate(90 51.5 71.5)" fill="#3164EA"/>
<circle cx="79.5" cy="31.5" r="1.5" fill="#3164EA"/>
<circle cx="41.5" cy="71.5" r="1.5" transform="rotate(90 41.5 71.5)" fill="#3164EA"/>
<circle cx="79.5" cy="41.5" r="1.5" fill="#3164EA"/>
<circle cx="31.5" cy="71.5" r="1.5" transform="rotate(90 31.5 71.5)" fill="#3164EA"/>
<circle cx="79.5" cy="51.5" r="1.5" fill="#3164EA"/>
<circle cx="21.5" cy="71.5" r="1.5" transform="rotate(90 21.5 71.5)" fill="#3164EA"/>
<circle cx="79.5" cy="61.5" r="1.5" fill="#3164EA"/>
<circle cx="11.5" cy="71.5" r="1.5" transform="rotate(90 11.5 71.5)" fill="#3164EA"/>
<circle cx="79.5" cy="71.5" r="1.5" fill="#3164EA"/>
<circle cx="79.5" cy="81.5" r="1.5" fill="#3164EA"/>
<circle cx="79.5" cy="91.5" r="1.5" fill="#3164EA"/>
<circle cx="79.5" cy="101.5" r="1.5" fill="#3164EA"/>
<circle cx="1.5" cy="71.5" r="1.5" transform="rotate(90 1.5 71.5)" fill="#3164EA"/>
<circle cx="89.5" cy="1.5" r="1.5" fill="#3164EA"/>
<circle cx="71.5" cy="81.5" r="1.5" transform="rotate(90 71.5 81.5)" fill="#3164EA"/>
<circle cx="89.5" cy="11.5" r="1.5" fill="#3164EA"/>
<circle cx="61.5" cy="81.5" r="1.5" transform="rotate(90 61.5 81.5)" fill="#3164EA"/>
<circle cx="89.5" cy="21.5" r="1.5" fill="#3164EA"/>
<circle cx="51.5" cy="81.5" r="1.5" transform="rotate(90 51.5 81.5)" fill="#3164EA"/>
<circle cx="89.5" cy="31.5" r="1.5" fill="#3164EA"/>
<circle cx="41.5" cy="81.5" r="1.5" transform="rotate(90 41.5 81.5)" fill="#3164EA"/>
<circle cx="89.5" cy="41.5" r="1.5" fill="#3164EA"/>
<circle cx="31.5" cy="81.5" r="1.5" transform="rotate(90 31.5 81.5)" fill="#3164EA"/>
<circle cx="89.5" cy="51.5" r="1.5" fill="#3164EA"/>
<circle cx="21.5" cy="81.5" r="1.5" transform="rotate(90 21.5 81.5)" fill="#3164EA"/>
<circle cx="89.5" cy="61.5" r="1.5" fill="#3164EA"/>
<circle cx="11.5" cy="81.5" r="1.5" transform="rotate(90 11.5 81.5)" fill="#3164EA"/>
<circle cx="89.5" cy="71.5" r="1.5" fill="#3164EA"/>
<circle cx="89.5" cy="81.5" r="1.5" fill="#3164EA"/>
<circle cx="89.5" cy="91.5" r="1.5" fill="#3164EA"/>
<circle cx="89.5" cy="101.5" r="1.5" fill="#3164EA"/>
<circle cx="1.5" cy="81.5" r="1.5" transform="rotate(90 1.5 81.5)" fill="#3164EA"/>
<circle cx="99.5" cy="1.5" r="1.5" fill="#3164EA"/>
<circle cx="71.5" cy="91.5" r="1.5" transform="rotate(90 71.5 91.5)" fill="#3164EA"/>
<circle cx="99.5" cy="11.5" r="1.5" fill="#3164EA"/>
<circle cx="61.5" cy="91.5" r="1.5" transform="rotate(90 61.5 91.5)" fill="#3164EA"/>
<circle cx="99.5" cy="21.5" r="1.5" fill="#3164EA"/>
<circle cx="51.5" cy="91.5" r="1.5" transform="rotate(90 51.5 91.5)" fill="#3164EA"/>
<circle cx="99.5" cy="31.5" r="1.5" fill="#3164EA"/>
<circle cx="41.5" cy="91.5" r="1.5" transform="rotate(90 41.5 91.5)" fill="#3164EA"/>
<circle cx="99.5" cy="41.5" r="1.5" fill="#3164EA"/>
<circle cx="31.5" cy="91.5" r="1.5" transform="rotate(90 31.5 91.5)" fill="#3164EA"/>
<circle cx="99.5" cy="51.5" r="1.5" fill="#3164EA"/>
<circle cx="21.5" cy="91.5" r="1.5" transform="rotate(90 21.5 91.5)" fill="#3164EA"/>
<circle cx="99.5" cy="61.5" r="1.5" fill="#3164EA"/>
<circle cx="11.5" cy="91.5" r="1.5" transform="rotate(90 11.5 91.5)" fill="#3164EA"/>
<circle cx="99.5" cy="71.5" r="1.5" fill="#3164EA"/>
<circle cx="99.5" cy="81.5" r="1.5" fill="#3164EA"/>
<circle cx="99.5" cy="91.5" r="1.5" fill="#3164EA"/>
<circle cx="99.5" cy="101.5" r="1.5" fill="#3164EA"/>
<circle cx="1.5" cy="91.5" r="1.5" transform="rotate(90 1.5 91.5)" fill="#3164EA"/>
<circle cx="109.5" cy="1.5" r="1.5" fill="#3164EA"/>
<circle cx="71.5" cy="101.5" r="1.5" transform="rotate(90 71.5 101.5)" fill="#3164EA"/>
<circle cx="109.5" cy="11.5" r="1.5" fill="#3164EA"/>
<circle cx="61.5" cy="101.5" r="1.5" transform="rotate(90 61.5 101.5)" fill="#3164EA"/>
<circle cx="109.5" cy="21.5" r="1.5" fill="#3164EA"/>
<circle cx="51.5" cy="101.5" r="1.5" transform="rotate(90 51.5 101.5)" fill="#3164EA"/>
<circle cx="109.5" cy="31.5" r="1.5" fill="#3164EA"/>
<circle cx="41.5" cy="101.5" r="1.5" transform="rotate(90 41.5 101.5)" fill="#3164EA"/>
<circle cx="109.5" cy="41.5" r="1.5" fill="#3164EA"/>
<circle cx="31.5" cy="101.5" r="1.5" transform="rotate(90 31.5 101.5)" fill="#3164EA"/>
<circle cx="109.5" cy="51.5" r="1.5" fill="#3164EA"/>
<circle cx="21.5" cy="101.5" r="1.5" transform="rotate(90 21.5 101.5)" fill="#3164EA"/>
<circle cx="109.5" cy="61.5" r="1.5" fill="#3164EA"/>
<circle cx="11.5" cy="101.5" r="1.5" transform="rotate(90 11.5 101.5)" fill="#3164EA"/>
<circle cx="109.5" cy="71.5" r="1.5" fill="#3164EA"/>
<circle cx="109.5" cy="81.5" r="1.5" fill="#3164EA"/>
<circle cx="109.5" cy="91.5" r="1.5" fill="#3164EA"/>
<circle cx="109.5" cy="101.5" r="1.5" fill="#3164EA"/>
<circle cx="1.5" cy="101.5" r="1.5" transform="rotate(90 1.5 101.5)" fill="#3164EA"/>
</svg>
