<svg width="111" height="103" viewBox="0 0 111 103" fill="none" xmlns="http://www.w3.org/2000/svg">
<circle cx="31.5" cy="101.5" r="1.5" transform="rotate(-180 31.5 101.5)" fill="#3164EA"/>
<circle cx="39.5" cy="31.5" r="1.5" transform="rotate(-90 39.5 31.5)" fill="#3164EA"/>
<circle cx="31.5" cy="91.5" r="1.5" transform="rotate(-180 31.5 91.5)" fill="#3164EA"/>
<circle cx="49.5" cy="31.5" r="1.5" transform="rotate(-90 49.5 31.5)" fill="#3164EA"/>
<circle cx="31.5" cy="81.5" r="1.5" transform="rotate(-180 31.5 81.5)" fill="#3164EA"/>
<circle cx="59.5" cy="31.5" r="1.5" transform="rotate(-90 59.5 31.5)" fill="#3164EA"/>
<circle cx="31.5" cy="71.5" r="1.5" transform="rotate(-180 31.5 71.5)" fill="#3164EA"/>
<circle cx="69.5" cy="31.5" r="1.5" transform="rotate(-90 69.5 31.5)" fill="#3164EA"/>
<circle cx="31.5" cy="61.5" r="1.5" transform="rotate(-180 31.5 61.5)" fill="#3164EA"/>
<circle cx="79.5" cy="31.5" r="1.5" transform="rotate(-90 79.5 31.5)" fill="#3164EA"/>
<circle cx="31.5" cy="51.5" r="1.5" transform="rotate(-180 31.5 51.5)" fill="#3164EA"/>
<circle cx="89.5" cy="31.5" r="1.5" transform="rotate(-90 89.5 31.5)" fill="#3164EA"/>
<circle cx="31.5" cy="41.5" r="1.5" transform="rotate(-180 31.5 41.5)" fill="#3164EA"/>
<circle cx="99.5" cy="31.5" r="1.5" transform="rotate(-90 99.5 31.5)" fill="#3164EA"/>
<circle cx="31.5" cy="31.5" r="1.5" transform="rotate(-180 31.5 31.5)" fill="#3164EA"/>
<circle cx="31.5" cy="21.5" r="1.5" transform="rotate(-180 31.5 21.5)" fill="#3164EA"/>
<circle cx="31.5" cy="11.5" r="1.5" transform="rotate(-180 31.5 11.5)" fill="#3164EA"/>
<circle cx="31.5" cy="1.5" r="1.5" transform="rotate(-180 31.5 1.5)" fill="#3164EA"/>
<circle cx="109.5" cy="31.5" r="1.5" transform="rotate(-90 109.5 31.5)" fill="#3164EA"/>
<circle cx="21.5" cy="101.5" r="1.5" transform="rotate(-180 21.5 101.5)" fill="#3164EA"/>
<circle cx="39.5" cy="21.5" r="1.5" transform="rotate(-90 39.5 21.5)" fill="#3164EA"/>
<circle cx="21.5" cy="91.5" r="1.5" transform="rotate(-180 21.5 91.5)" fill="#3164EA"/>
<circle cx="49.5" cy="21.5" r="1.5" transform="rotate(-90 49.5 21.5)" fill="#3164EA"/>
<circle cx="21.5" cy="81.5" r="1.5" transform="rotate(-180 21.5 81.5)" fill="#3164EA"/>
<circle cx="59.5" cy="21.5" r="1.5" transform="rotate(-90 59.5 21.5)" fill="#3164EA"/>
<circle cx="21.5" cy="71.5" r="1.5" transform="rotate(-180 21.5 71.5)" fill="#3164EA"/>
<circle cx="69.5" cy="21.5" r="1.5" transform="rotate(-90 69.5 21.5)" fill="#3164EA"/>
<circle cx="21.5" cy="61.5" r="1.5" transform="rotate(-180 21.5 61.5)" fill="#3164EA"/>
<circle cx="79.5" cy="21.5" r="1.5" transform="rotate(-90 79.5 21.5)" fill="#3164EA"/>
<circle cx="21.5" cy="51.5" r="1.5" transform="rotate(-180 21.5 51.5)" fill="#3164EA"/>
<circle cx="89.5" cy="21.5" r="1.5" transform="rotate(-90 89.5 21.5)" fill="#3164EA"/>
<circle cx="21.5" cy="41.5" r="1.5" transform="rotate(-180 21.5 41.5)" fill="#3164EA"/>
<circle cx="99.5" cy="21.5" r="1.5" transform="rotate(-90 99.5 21.5)" fill="#3164EA"/>
<circle cx="21.5" cy="31.5" r="1.5" transform="rotate(-180 21.5 31.5)" fill="#3164EA"/>
<circle cx="21.5" cy="21.5" r="1.5" transform="rotate(-180 21.5 21.5)" fill="#3164EA"/>
<circle cx="21.5" cy="11.5" r="1.5" transform="rotate(-180 21.5 11.5)" fill="#3164EA"/>
<circle cx="21.5" cy="1.5" r="1.5" transform="rotate(-180 21.5 1.5)" fill="#3164EA"/>
<circle cx="109.5" cy="21.5" r="1.5" transform="rotate(-90 109.5 21.5)" fill="#3164EA"/>
<circle cx="11.5" cy="101.5" r="1.5" transform="rotate(-180 11.5 101.5)" fill="#3164EA"/>
<circle cx="39.5" cy="11.5" r="1.5" transform="rotate(-90 39.5 11.5)" fill="#3164EA"/>
<circle cx="11.5" cy="91.5" r="1.5" transform="rotate(-180 11.5 91.5)" fill="#3164EA"/>
<circle cx="49.5" cy="11.5" r="1.5" transform="rotate(-90 49.5 11.5)" fill="#3164EA"/>
<circle cx="11.5" cy="81.5" r="1.5" transform="rotate(-180 11.5 81.5)" fill="#3164EA"/>
<circle cx="59.5" cy="11.5" r="1.5" transform="rotate(-90 59.5 11.5)" fill="#3164EA"/>
<circle cx="11.5" cy="71.5" r="1.5" transform="rotate(-180 11.5 71.5)" fill="#3164EA"/>
<circle cx="69.5" cy="11.5" r="1.5" transform="rotate(-90 69.5 11.5)" fill="#3164EA"/>
<circle cx="11.5" cy="61.5" r="1.5" transform="rotate(-180 11.5 61.5)" fill="#3164EA"/>
<circle cx="79.5" cy="11.5" r="1.5" transform="rotate(-90 79.5 11.5)" fill="#3164EA"/>
<circle cx="11.5" cy="51.5" r="1.5" transform="rotate(-180 11.5 51.5)" fill="#3164EA"/>
<circle cx="89.5" cy="11.5" r="1.5" transform="rotate(-90 89.5 11.5)" fill="#3164EA"/>
<circle cx="11.5" cy="41.5" r="1.5" transform="rotate(-180 11.5 41.5)" fill="#3164EA"/>
<circle cx="99.5" cy="11.5" r="1.5" transform="rotate(-90 99.5 11.5)" fill="#3164EA"/>
<circle cx="11.5" cy="31.5" r="1.5" transform="rotate(-180 11.5 31.5)" fill="#3164EA"/>
<circle cx="11.5" cy="21.5" r="1.5" transform="rotate(-180 11.5 21.5)" fill="#3164EA"/>
<circle cx="11.5" cy="11.5" r="1.5" transform="rotate(-180 11.5 11.5)" fill="#3164EA"/>
<circle cx="11.5" cy="1.5" r="1.5" transform="rotate(-180 11.5 1.5)" fill="#3164EA"/>
<circle cx="109.5" cy="11.5" r="1.5" transform="rotate(-90 109.5 11.5)" fill="#3164EA"/>
<circle cx="1.5" cy="101.5" r="1.5" transform="rotate(-180 1.5 101.5)" fill="#3164EA"/>
<circle cx="39.5" cy="1.5" r="1.5" transform="rotate(-90 39.5 1.5)" fill="#3164EA"/>
<circle cx="1.5" cy="91.5" r="1.5" transform="rotate(-180 1.5 91.5)" fill="#3164EA"/>
<circle cx="49.5" cy="1.5" r="1.5" transform="rotate(-90 49.5 1.5)" fill="#3164EA"/>
<circle cx="1.5" cy="81.5" r="1.5" transform="rotate(-180 1.5 81.5)" fill="#3164EA"/>
<circle cx="59.5" cy="1.5" r="1.5" transform="rotate(-90 59.5 1.5)" fill="#3164EA"/>
<circle cx="1.5" cy="71.5" r="1.5" transform="rotate(-180 1.5 71.5)" fill="#3164EA"/>
<circle cx="69.5" cy="1.5" r="1.5" transform="rotate(-90 69.5 1.5)" fill="#3164EA"/>
<circle cx="1.5" cy="61.5" r="1.5" transform="rotate(-180 1.5 61.5)" fill="#3164EA"/>
<circle cx="79.5" cy="1.5" r="1.5" transform="rotate(-90 79.5 1.5)" fill="#3164EA"/>
<circle cx="1.5" cy="51.5" r="1.5" transform="rotate(-180 1.5 51.5)" fill="#3164EA"/>
<circle cx="89.5" cy="1.5" r="1.5" transform="rotate(-90 89.5 1.5)" fill="#3164EA"/>
<circle cx="1.5" cy="41.5" r="1.5" transform="rotate(-180 1.5 41.5)" fill="#3164EA"/>
<circle cx="99.5" cy="1.5" r="1.5" transform="rotate(-90 99.5 1.5)" fill="#3164EA"/>
<circle cx="1.5" cy="31.5" r="1.5" transform="rotate(-180 1.5 31.5)" fill="#3164EA"/>
<circle cx="1.5" cy="21.5" r="1.5" transform="rotate(-180 1.5 21.5)" fill="#3164EA"/>
<circle cx="1.5" cy="11.5" r="1.5" transform="rotate(-180 1.5 11.5)" fill="#3164EA"/>
<circle cx="1.5" cy="1.5" r="1.5" transform="rotate(-180 1.5 1.5)" fill="#3164EA"/>
<circle cx="109.5" cy="1.5" r="1.5" transform="rotate(-90 109.5 1.5)" fill="#3164EA"/>
</svg>
