<svg width="65" height="65" viewBox="0 0 65 65" fill="none" xmlns="http://www.w3.org/2000/svg">
<g clip-path="url(#clip0)">
<g filter="url(#filter0_d)">
<path d="M54.1665 32.4998C54.1665 26.7535 51.8838 21.2425 47.8205 17.1792C43.7572 13.1159 38.2462 10.8332 32.4998 10.8332C26.7535 10.8332 21.2425 13.1159 17.1792 17.1792C13.1159 21.2425 10.8332 26.7535 10.8332 32.4998C10.8332 38.2462 13.1159 43.7572 17.1792 47.8205C21.2425 51.8838 26.7535 54.1665 32.4998 54.1665C38.2462 54.1665 43.7572 51.8838 47.8205 47.8205C51.8838 43.7572 54.1665 38.2462 54.1665 32.4998ZM59.5832 32.4998C59.5832 39.6828 56.7298 46.5715 51.6507 51.6507C46.5715 56.7298 39.6828 59.5832 32.4998 59.5832C28.9432 59.5832 25.4214 58.8826 22.1355 57.5216C18.8496 56.1605 15.8639 54.1656 13.349 51.6507C8.26992 46.5715 5.4165 39.6828 5.4165 32.4998C5.4165 25.3169 8.26992 18.4281 13.349 13.349C18.4281 8.26992 25.3169 5.4165 32.4998 5.4165C36.0565 5.4165 39.5783 6.11704 42.8642 7.4781C46.1501 8.83916 49.1357 10.8341 51.6507 13.349C54.1656 15.8639 56.1605 18.8496 57.5216 22.1355C58.8826 25.4214 59.5832 28.9432 59.5832 32.4998ZM27.0832 25.729C27.0832 27.8957 25.1873 29.7915 23.0207 29.7915C20.854 29.7915 18.9582 27.8957 18.9582 25.729C18.9582 23.5623 20.854 21.6665 23.0207 21.6665C25.1873 21.6665 27.0832 23.5623 27.0832 25.729ZM46.0415 25.729C46.0415 27.8957 44.1457 29.7915 41.979 29.7915C39.8123 29.7915 37.9165 27.8957 37.9165 25.729C37.9165 23.5623 39.8123 21.6665 41.979 21.6665C44.1457 21.6665 46.0415 23.5623 46.0415 25.729ZM32.4998 46.6644C27.7603 46.6644 23.5894 44.6873 21.1519 41.7623L24.9978 37.9165C26.2165 39.8665 29.1144 41.2478 32.4998 41.2478C35.8853 41.2478 38.7832 39.8665 40.0019 37.9165L43.8478 41.7623C41.4103 44.6873 37.2394 46.6644 32.4998 46.6644Z" fill="#3164EA"/>
</g>
</g>
<defs>
<filter id="filter0_d" x="1.4165" y="5.4165" width="62.1667" height="62.1667" filterUnits="userSpaceOnUse" color-interpolation-filters="sRGB">
<feFlood flood-opacity="0" result="BackgroundImageFix"/>
<feColorMatrix in="SourceAlpha" type="matrix" values="0 0 0 0 0 0 0 0 0 0 0 0 0 0 0 0 0 0 127 0"/>
<feOffset dy="4"/>
<feGaussianBlur stdDeviation="2"/>
<feColorMatrix type="matrix" values="0 0 0 0 0.192157 0 0 0 0 0.392157 0 0 0 0 0.917647 0 0 0 0.4 0"/>
<feBlend mode="normal" in2="BackgroundImageFix" result="effect1_dropShadow"/>
<feBlend mode="normal" in="SourceGraphic" in2="effect1_dropShadow" result="shape"/>
</filter>
<clipPath id="clip0">
<rect width="65" height="65" fill="white"/>
</clipPath>
</defs>
</svg>
