<svg width="68" height="68" viewBox="0 0 68 68" fill="none" xmlns="http://www.w3.org/2000/svg">
<g filter="url(#filter0_d)">
<path d="M48.3365 36.8337C43.0665 36.8337 38.6465 40.602 37.5132 45.617C34.8215 44.4553 32.3565 44.767 30.4865 45.5887C29.3248 40.5453 24.9048 36.8337 19.6632 36.8337C13.5148 36.8337 8.49984 41.9053 8.49984 48.167C8.49984 54.4287 13.5148 59.5003 19.6632 59.5003C25.4998 59.5003 30.2598 54.9103 30.7132 49.0737C31.6765 48.3937 34.1982 47.1187 37.2865 49.1303C37.7965 54.9387 42.4998 59.5003 48.3365 59.5003C54.4848 59.5003 59.4998 54.4287 59.4998 48.167C59.4998 41.9053 54.4848 36.8337 48.3365 36.8337ZM19.6632 56.2703C15.2432 56.2703 11.7015 52.6437 11.7015 48.167C11.7015 43.6903 15.2715 40.0637 19.6632 40.0637C24.0832 40.0637 27.6248 43.6903 27.6248 48.167C27.6248 52.6437 24.0832 56.2703 19.6632 56.2703ZM48.3365 56.2703C43.9165 56.2703 40.3748 52.6437 40.3748 48.167C40.3748 43.6903 43.9165 40.0637 48.3365 40.0637C52.7565 40.0637 56.3265 43.6903 56.3265 48.167C56.3265 52.6437 52.7282 56.2703 48.3365 56.2703ZM62.3332 29.7503H5.6665V34.0003H62.3332V29.7503ZM44.0015 7.452C43.3782 6.06366 41.7915 5.327 40.2898 5.80866L33.9998 7.90533L27.6815 5.80866L27.5398 5.78033C26.0382 5.35533 24.4515 6.14866 23.8848 7.59366L16.9998 25.5003H50.9998L44.0865 7.59366L44.0015 7.452Z" fill="#3164EA"/>
</g>
<defs>
<filter id="filter0_d" x="1.6665" y="5.66113" width="64.6667" height="61.8392" filterUnits="userSpaceOnUse" color-interpolation-filters="sRGB">
<feFlood flood-opacity="0" result="BackgroundImageFix"/>
<feColorMatrix in="SourceAlpha" type="matrix" values="0 0 0 0 0 0 0 0 0 0 0 0 0 0 0 0 0 0 127 0"/>
<feOffset dy="4"/>
<feGaussianBlur stdDeviation="2"/>
<feColorMatrix type="matrix" values="0 0 0 0 0.192157 0 0 0 0 0.392157 0 0 0 0 0.917647 0 0 0 0.4 0"/>
<feBlend mode="normal" in2="BackgroundImageFix" result="effect1_dropShadow"/>
<feBlend mode="normal" in="SourceGraphic" in2="effect1_dropShadow" result="shape"/>
</filter>
</defs>
</svg>
