<svg width="74" height="74" viewBox="0 0 74 74" fill="none" xmlns="http://www.w3.org/2000/svg">
<g clip-path="url(#clip0)">
<g filter="url(#filter0_d)">
<path fill-rule="evenodd" clip-rule="evenodd" d="M1.40319e-06 37.0004C-0.00158472 32.9266 1.34154 28.9661 3.82094 25.7337C6.30034 22.5013 9.77735 20.1777 13.7124 19.1234C17.6474 18.0691 21.8204 18.3432 25.5837 19.9031C29.3471 21.463 32.4903 24.2214 34.5256 27.7504H64.75C65.0539 27.7498 65.3549 27.8092 65.6358 27.925C65.9168 28.0409 66.1721 28.211 66.3873 28.4256L73.3248 35.3631C73.5401 35.5779 73.711 35.8331 73.8275 36.1141C73.9441 36.395 74.0041 36.6962 74.0041 37.0004C74.0041 37.3045 73.9441 37.6057 73.8275 37.8867C73.711 38.1676 73.5401 38.4228 73.3248 38.6376L66.3873 45.5751C66.1724 45.7905 65.9173 45.9613 65.6363 46.0779C65.3554 46.1945 65.0542 46.2545 64.75 46.2545C64.4458 46.2545 64.1446 46.1945 63.8637 46.0779C63.5827 45.9613 63.3276 45.7905 63.1128 45.5751L60.125 42.5827L57.1372 45.5751C56.9224 45.7905 56.6673 45.9613 56.3863 46.0779C56.1054 46.1945 55.8042 46.2545 55.5 46.2545C55.1958 46.2545 54.8946 46.1945 54.6137 46.0779C54.3327 45.9613 54.0776 45.7905 53.8628 45.5751L50.875 42.5827L47.8872 45.5751C47.6724 45.7905 47.4173 45.9613 47.1363 46.0779C46.8554 46.1945 46.5542 46.2545 46.25 46.2545C45.9458 46.2545 45.6446 46.1945 45.3637 46.0779C45.0827 45.9613 44.8276 45.7905 44.6128 45.5751L41.625 42.5827L38.6372 45.5751C38.4221 45.7897 38.1668 45.9598 37.8858 46.0757C37.6049 46.1916 37.3039 46.2509 37 46.2504H34.5256C32.4903 49.7793 29.3471 52.5378 25.5837 54.0976C21.8204 55.6575 17.6474 55.9316 13.7124 54.8773C9.77735 53.8231 6.30034 51.4994 3.82094 48.267C1.34154 45.0346 -0.00158472 41.0742 1.40319e-06 37.0004ZM18.5 23.1254C16.017 23.1263 13.5798 23.7935 11.4426 25.0574C9.30534 26.3213 7.54643 28.1356 6.34933 30.3109C5.15223 32.4863 4.5608 34.943 4.63676 37.4248C4.71271 39.9066 5.45325 42.3226 6.78113 44.4206C8.10901 46.5187 9.97557 48.222 12.1861 49.3528C14.3966 50.4837 16.8701 51.0006 19.3485 50.8497C21.8268 50.6988 24.2193 49.8856 26.2763 48.495C28.3333 47.1043 29.9795 45.1872 31.043 42.9435C31.2308 42.5493 31.5263 42.2162 31.8954 41.983C32.2646 41.7497 32.6922 41.6257 33.1289 41.6254H36.0426L39.9878 37.6756C40.2026 37.4603 40.4577 37.2894 40.7387 37.1728C41.0196 37.0562 41.3208 36.9962 41.625 36.9962C41.9292 36.9962 42.2304 37.0562 42.5113 37.1728C42.7923 37.2894 43.0474 37.4603 43.2622 37.6756L46.25 40.668L49.2378 37.6756C49.4526 37.4603 49.7077 37.2894 49.9887 37.1728C50.2696 37.0562 50.5708 36.9962 50.875 36.9962C51.1792 36.9962 51.4804 37.0562 51.7613 37.1728C52.0423 37.2894 52.2974 37.4603 52.5122 37.6756L55.5 40.668L58.4878 37.6756C58.7026 37.4603 58.9577 37.2894 59.2387 37.1728C59.5196 37.0562 59.8208 36.9962 60.125 36.9962C60.4292 36.9962 60.7304 37.0562 61.0113 37.1728C61.2923 37.2894 61.5474 37.4603 61.7622 37.6756L64.75 40.668L68.4176 37.0004L63.7926 32.3754H33.1289C32.6922 32.375 32.2646 32.251 31.8954 32.0178C31.5263 31.7845 31.2308 31.4515 31.043 31.0572C29.9177 28.6833 28.1415 26.6776 25.9211 25.2734C23.7006 23.8693 21.1272 23.1244 18.5 23.1254Z" fill="#3164EA"/>
</g>
<g filter="url(#filter1_d)">
<path d="M18.5 37C18.5 38.2266 18.0127 39.403 17.1454 40.2704C16.278 41.1377 15.1016 41.625 13.875 41.625C12.6484 41.625 11.472 41.1377 10.6046 40.2704C9.73728 39.403 9.25 38.2266 9.25 37C9.25 35.7734 9.73728 34.597 10.6046 33.7296C11.472 32.8623 12.6484 32.375 13.875 32.375C15.1016 32.375 16.278 32.8623 17.1454 33.7296C18.0127 34.597 18.5 35.7734 18.5 37Z" fill="#3164EA"/>
</g>
</g>
<defs>
<filter id="filter0_d" x="-4" y="18.4932" width="82.0041" height="45.0144" filterUnits="userSpaceOnUse" color-interpolation-filters="sRGB">
<feFlood flood-opacity="0" result="BackgroundImageFix"/>
<feColorMatrix in="SourceAlpha" type="matrix" values="0 0 0 0 0 0 0 0 0 0 0 0 0 0 0 0 0 0 127 0"/>
<feOffset dy="4"/>
<feGaussianBlur stdDeviation="2"/>
<feColorMatrix type="matrix" values="0 0 0 0 0.192157 0 0 0 0 0.392157 0 0 0 0 0.917647 0 0 0 0.4 0"/>
<feBlend mode="normal" in2="BackgroundImageFix" result="effect1_dropShadow"/>
<feBlend mode="normal" in="SourceGraphic" in2="effect1_dropShadow" result="shape"/>
</filter>
<filter id="filter1_d" x="5.25" y="32.375" width="17.25" height="17.25" filterUnits="userSpaceOnUse" color-interpolation-filters="sRGB">
<feFlood flood-opacity="0" result="BackgroundImageFix"/>
<feColorMatrix in="SourceAlpha" type="matrix" values="0 0 0 0 0 0 0 0 0 0 0 0 0 0 0 0 0 0 127 0"/>
<feOffset dy="4"/>
<feGaussianBlur stdDeviation="2"/>
<feColorMatrix type="matrix" values="0 0 0 0 0.192157 0 0 0 0 0.392157 0 0 0 0 0.917647 0 0 0 0.4 0"/>
<feBlend mode="normal" in2="BackgroundImageFix" result="effect1_dropShadow"/>
<feBlend mode="normal" in="SourceGraphic" in2="effect1_dropShadow" result="shape"/>
</filter>
<clipPath id="clip0">
<rect width="74" height="74" fill="white"/>
</clipPath>
</defs>
</svg>
