<svg width="78" height="60" viewBox="0 0 78 60" fill="none" xmlns="http://www.w3.org/2000/svg">
<g filter="url(#filter0_d)">
<path fill-rule="evenodd" clip-rule="evenodd" d="M51.75 51.5C51.75 51.5 56 51.5 56 47.25C56 43 51.75 30.25 30.5 30.25C9.25 30.25 5 43 5 47.25C5 51.5 9.25 51.5 9.25 51.5H51.75ZM9.3435 47.25H51.6565C51.6764 47.2477 51.6962 47.2448 51.716 47.2415L51.75 47.233C51.7458 46.1875 51.0955 43.0425 48.214 40.161C45.443 37.39 40.2282 34.5 30.5 34.5C20.7675 34.5 15.557 37.39 12.786 40.161C9.9045 43.0425 9.2585 46.1875 9.25 47.233C9.28111 47.239 9.31227 47.2447 9.3435 47.25ZM30.5 21.75C32.7543 21.75 34.9163 20.8545 36.5104 19.2604C38.1045 17.6663 39 15.5043 39 13.25C39 10.9957 38.1045 8.83365 36.5104 7.23959C34.9163 5.64553 32.7543 4.75 30.5 4.75C28.2457 4.75 26.0837 5.64553 24.4896 7.23959C22.8955 8.83365 22 10.9957 22 13.25C22 15.5043 22.8955 17.6663 24.4896 19.2604C26.0837 20.8545 28.2457 21.75 30.5 21.75ZM43.25 13.25C43.25 16.6315 41.9067 19.8745 39.5156 22.2656C37.1245 24.6567 33.8815 26 30.5 26C27.1185 26 23.8755 24.6567 21.4844 22.2656C19.0933 19.8745 17.75 16.6315 17.75 13.25C17.75 9.86849 19.0933 6.62548 21.4844 4.23439C23.8755 1.8433 27.1185 0.5 30.5 0.5C33.8815 0.5 37.1245 1.8433 39.5156 4.23439C41.9067 6.62548 43.25 9.86849 43.25 13.25ZM72.3795 13.8705C72.5774 14.0679 72.7344 14.3024 72.8415 14.5606C72.9487 14.8187 73.0038 15.0955 73.0038 15.375C73.0038 15.6545 72.9487 15.9313 72.8415 16.1894C72.7344 16.4476 72.5774 16.6821 72.3795 16.8795L59.6295 29.6295C59.4321 29.8274 59.1976 29.9844 58.9394 30.0915C58.6813 30.1987 58.4045 30.2538 58.125 30.2538C57.8455 30.2538 57.5687 30.1987 57.3106 30.0915C57.0524 29.9844 56.8179 29.8274 56.6205 29.6295L50.2455 23.2545C49.8465 22.8555 49.6223 22.3143 49.6223 21.75C49.6223 21.1857 49.8465 20.6445 50.2455 20.2455C50.6445 19.8465 51.1857 19.6223 51.75 19.6223C52.3143 19.6223 52.8555 19.8465 53.2545 20.2455L58.125 25.1203L69.3705 13.8705C69.5679 13.6726 69.8024 13.5156 70.0606 13.4085C70.3187 13.3013 70.5955 13.2462 70.875 13.2462C71.1545 13.2462 71.4313 13.3013 71.6894 13.4085C71.9476 13.5156 72.1821 13.6726 72.3795 13.8705Z" fill="#3164EA"/>
<path fill-rule="evenodd" clip-rule="evenodd" d="M71.6894 13.4085C71.9476 13.5156 72.1821 13.6726 72.3795 13.8705C72.5774 14.0679 72.7344 14.3024 72.8415 14.5606C72.9487 14.8187 73.0038 15.0955 73.0038 15.375C73.0038 15.6545 72.9487 15.9313 72.8415 16.1894C72.7344 16.4476 72.5774 16.6821 72.3795 16.8795L59.6295 29.6295C59.4321 29.8274 59.1976 29.9844 58.9394 30.0915C58.6813 30.1987 58.4045 30.2538 58.125 30.2538C57.8455 30.2538 57.5687 30.1987 57.3106 30.0915C57.0524 29.9844 56.8179 29.8274 56.6205 29.6295L50.2455 23.2545C49.8465 22.8555 49.6223 22.3143 49.6223 21.75C49.6223 21.1857 49.8465 20.6445 50.2455 20.2455C50.6445 19.8465 51.1857 19.6223 51.75 19.6223C52.3143 19.6223 52.8555 19.8465 53.2545 20.2455L58.125 25.1203L69.3705 13.8705C69.5679 13.6726 69.8024 13.5156 70.0606 13.4085C70.3187 13.3013 70.5955 13.2462 70.875 13.2462C71.1545 13.2462 71.4313 13.3013 71.6894 13.4085ZM69.0169 13.517C69.2606 13.2727 69.5502 13.0789 69.8689 12.9467C70.1878 12.8143 70.5297 12.7462 70.875 12.7462C71.2203 12.7462 71.5622 12.8143 71.8811 12.9467C72.1996 13.0788 72.489 13.2725 72.7326 13.5165M69.0169 13.517L58.1251 24.4129L53.6082 19.8921C53.1154 19.3993 52.4469 19.1223 51.75 19.1223C51.0531 19.1223 50.3847 19.3992 49.8919 19.8919C49.3992 20.3847 49.1223 21.0531 49.1223 21.75C49.1223 22.4469 49.3992 23.1153 49.8919 23.6081L56.2665 29.9826C56.5103 30.2271 56.8 30.421 57.1189 30.5533C57.4378 30.6857 57.7797 30.7538 58.125 30.7538C58.4703 30.7538 58.8122 30.6857 59.1311 30.5533C59.45 30.421 59.7397 30.2271 59.9835 29.9826L72.7326 17.2335C72.9771 16.9897 73.171 16.7 73.3033 16.3811C73.4357 16.0622 73.5038 15.7203 73.5038 15.375C73.5038 15.0297 73.4357 14.6878 73.3034 14.3689L72.8415 14.5606M51.7505 52C51.7503 52 51.75 52 51.75 51.5C51.75 51.5 56 51.5 56 47.25C56 43 51.75 30.25 30.5 30.25C9.25 30.25 5 43 5 47.25C5 51.5 9.25 51.5 9.25 51.5C9.25 52 9.24974 52 9.24946 52L9.24295 52L9.22974 51.9998C9.21893 51.9996 9.20413 51.9993 9.18561 51.9987C9.14859 51.9975 9.0966 51.9951 9.03176 51.9904C8.90226 51.9812 8.72051 51.9629 8.50374 51.9268C8.07255 51.8549 7.49 51.7103 6.90139 51.416C6.31083 51.1207 5.70505 50.6699 5.24804 49.9844C4.78893 49.2957 4.5 48.4 4.5 47.25C4.5 44.9966 5.61223 40.6182 9.4277 36.8027C13.2578 32.9726 19.7696 29.75 30.5 29.75C41.2304 29.75 47.7422 32.9726 51.5723 36.8027C55.3878 40.6182 56.5 44.9966 56.5 47.25C56.5 48.4 56.2111 49.2957 55.752 49.9844C55.2949 50.6699 54.6892 51.1207 54.0986 51.416C53.51 51.7103 52.9274 51.8549 52.4963 51.9268C52.2795 51.9629 52.0977 51.9812 51.9682 51.9904C51.9034 51.9951 51.8514 51.9975 51.8144 51.9987C51.8012 51.9991 51.7898 51.9994 51.7805 51.9996C51.7768 51.9997 51.7733 51.9998 51.7703 51.9998L51.757 52L51.7505 52ZM9.25 51.5L9.24946 52H51.7505L51.75 51.5H9.25ZM51.716 47.2415C51.6962 47.2448 51.6764 47.2477 51.6565 47.25H9.3435C9.31227 47.2447 9.28111 47.239 9.25 47.233C9.2585 46.1875 9.9045 43.0425 12.786 40.161C15.557 37.39 20.7675 34.5 30.5 34.5C40.2282 34.5 45.443 37.39 48.214 40.161C51.0955 43.0425 51.7458 46.1875 51.75 47.233L51.716 47.2415ZM51.2114 46.75C51.0425 45.5009 50.267 42.9211 47.8604 40.5146C45.2007 37.8548 40.1225 35 30.5 35C20.8733 35 15.7994 37.8547 13.1396 40.5146C10.7344 42.9197 9.96088 45.4988 9.78994 46.75H51.2114ZM30.5 21.25C32.6217 21.25 34.6566 20.4071 36.1569 18.9069C37.6571 17.4066 38.5 15.3717 38.5 13.25C38.5 11.1283 37.6571 9.09344 36.1569 7.59315C34.6566 6.09285 32.6217 5.25 30.5 5.25C28.3783 5.25 26.3434 6.09285 24.8431 7.59315C23.3429 9.09344 22.5 11.1283 22.5 13.25C22.5 15.3717 23.3429 17.4066 24.8431 18.9069C26.3434 20.4071 28.3783 21.25 30.5 21.25ZM43.75 13.25C43.75 16.7641 42.354 20.1343 39.8692 22.6192C37.3843 25.104 34.0141 26.5 30.5 26.5C26.9859 26.5 23.6157 25.104 21.1308 22.6192C18.646 20.1343 17.25 16.7641 17.25 13.25C17.25 9.73588 18.646 6.36569 21.1308 3.88084C23.6157 1.39598 26.9859 0 30.5 0C34.0141 0 37.3843 1.39598 39.8692 3.88084C42.354 6.36569 43.75 9.73588 43.75 13.25ZM36.5104 19.2604C34.9163 20.8545 32.7543 21.75 30.5 21.75C28.2457 21.75 26.0837 20.8545 24.4896 19.2604C22.8955 17.6663 22 15.5043 22 13.25C22 10.9957 22.8955 8.83365 24.4896 7.23959C26.0837 5.64553 28.2457 4.75 30.5 4.75C32.7543 4.75 34.9163 5.64553 36.5104 7.23959C38.1045 8.83365 39 10.9957 39 13.25C39 15.5043 38.1045 17.6663 36.5104 19.2604ZM39.5156 22.2656C41.9067 19.8745 43.25 16.6315 43.25 13.25C43.25 9.86849 41.9067 6.62548 39.5156 4.23439C37.1245 1.8433 33.8815 0.5 30.5 0.5C27.1185 0.5 23.8755 1.8433 21.4844 4.23439C19.0933 6.62548 17.75 9.86849 17.75 13.25C17.75 16.6315 19.0933 19.8745 21.4844 22.2656C23.8755 24.6567 27.1185 26 30.5 26C33.8815 26 37.1245 24.6567 39.5156 22.2656Z" fill="#3164EA"/>
</g>
<defs>
<filter id="filter0_d" x="0.5" y="0" width="77.0038" height="60" filterUnits="userSpaceOnUse" color-interpolation-filters="sRGB">
<feFlood flood-opacity="0" result="BackgroundImageFix"/>
<feColorMatrix in="SourceAlpha" type="matrix" values="0 0 0 0 0 0 0 0 0 0 0 0 0 0 0 0 0 0 127 0"/>
<feOffset dy="4"/>
<feGaussianBlur stdDeviation="2"/>
<feColorMatrix type="matrix" values="0 0 0 0 0.192157 0 0 0 0 0.392157 0 0 0 0 0.917647 0 0 0 0.4 0"/>
<feBlend mode="normal" in2="BackgroundImageFix" result="effect1_dropShadow"/>
<feBlend mode="normal" in="SourceGraphic" in2="effect1_dropShadow" result="shape"/>
</filter>
</defs>
</svg>
