<svg width="35" height="21" viewBox="0 0 35 21" fill="none" xmlns="http://www.w3.org/2000/svg">
<path d="M1.51514 11.9652L29.8274 11.9652L23.0717 18.4989C22.4798 19.0709 22.4798 19.9988 23.0717 20.5707C23.6635 21.1431 24.623 21.1431 25.214 20.5707L34.5561 11.5361C35.148 10.9641 35.148 10.0361 34.5561 9.46424L25.214 0.429183C24.9182 0.142922 24.5305 2.89942e-06 24.1428 2.86553e-06C23.7552 2.83165e-06 23.3675 0.142922 23.0717 0.429183C22.4798 1.0012 22.4798 1.92912 23.0717 2.50096L29.8274 9.03497L1.51514 9.03497C0.678468 9.03497 9.88663e-07 9.69101 9.17928e-07 10.5001C8.47193e-07 11.3092 0.678384 11.9652 1.51514 11.9652Z" fill="white"/>
</svg>
