<svg width="59" height="65" viewBox="0 0 59 65" fill="none" xmlns="http://www.w3.org/2000/svg">
<g filter="url(#filter0_d)">
<path fill-rule="evenodd" clip-rule="evenodd" d="M20.0712 6.34181C16.6989 7.24839 13.3485 8.23446 10.0228 9.29919C9.72181 9.39209 9.45316 9.56802 9.24768 9.80676C9.04221 10.0455 8.90826 10.3374 8.86122 10.6488C6.89578 25.019 11.4314 35.5062 16.841 42.4129C19.555 45.8792 22.4939 48.4457 24.9424 50.1309C26.1703 50.9716 27.2508 51.5838 28.1026 51.9746C28.5303 52.1701 28.877 52.3028 29.1425 52.3802C29.2595 52.4179 29.379 52.4475 29.5002 52.4688C29.526 52.4651 29.6403 52.4503 29.8578 52.3839C30.1233 52.3028 30.47 52.1701 30.8977 51.9746C31.7458 51.5838 32.8337 50.9716 34.0579 50.1309C37.1282 47.9767 39.8589 45.3752 42.1593 42.4129C47.5689 35.5062 52.1045 25.019 50.1391 10.6488C50.0921 10.3374 49.9581 10.0455 49.7526 9.80676C49.5472 9.56802 49.2785 9.39209 48.9775 9.29919C46.6692 8.56169 42.7752 7.35956 38.9291 6.34181C34.9982 5.30563 31.3808 4.53125 29.5002 4.53125C27.6195 4.53125 24.0058 5.30563 20.0712 6.34181ZM19.1272 2.77969C22.9733 1.76194 27.0553 0.84375 29.5002 0.84375C31.9413 0.84375 36.027 1.76194 39.8731 2.77969C43.3036 3.70073 46.7118 4.70278 50.0948 5.785C52.0418 6.4045 53.5095 8.08231 53.7934 10.151C55.9063 25.6274 51.0057 37.0956 45.0651 44.6844C42.5336 47.9413 39.528 50.8001 36.1487 53.1657C34.9737 53.9888 33.7315 54.7116 32.4354 55.3266C31.4398 55.7838 30.3778 56.1562 29.5002 56.1562C28.6225 56.1562 27.5605 55.7838 26.5649 55.3266C25.2685 54.7121 24.0263 53.9893 22.8516 53.1657C19.4736 50.7998 16.4694 47.941 13.9389 44.6844C7.99097 37.0956 3.09397 25.6274 5.20691 10.151C5.34818 9.14826 5.77053 8.20603 6.42508 7.43337C7.07962 6.6607 7.9396 6.0892 8.90547 5.785C12.2886 4.70281 15.6968 3.70076 19.1272 2.77969Z" fill="#3164EA"/>
<path fill-rule="evenodd" clip-rule="evenodd" d="M40.0245 21.6632C40.1962 21.8344 40.3325 22.0379 40.4254 22.2619C40.5184 22.4859 40.5662 22.726 40.5662 22.9685C40.5662 23.211 40.5184 23.4512 40.4254 23.6752C40.3325 23.8992 40.1962 24.1026 40.0245 24.2739L28.962 35.3364C28.7908 35.5081 28.5873 35.6443 28.3633 35.7373C28.1393 35.8302 27.8992 35.8781 27.6567 35.8781C27.4142 35.8781 27.174 35.8302 26.95 35.7373C26.726 35.6443 26.5226 35.5081 26.3513 35.3364L20.82 29.8052C20.6486 29.6337 20.5126 29.4302 20.4199 29.2062C20.3271 28.9823 20.2793 28.7422 20.2793 28.4998C20.2793 28.2573 20.3271 28.0173 20.4199 27.7933C20.5126 27.5693 20.6486 27.3658 20.82 27.1944C20.9915 27.023 21.195 26.887 21.419 26.7942C21.6429 26.7014 21.883 26.6537 22.1254 26.6537C22.3679 26.6537 22.6079 26.7014 22.8319 26.7942C23.0559 26.887 23.2594 27.023 23.4308 27.1944L27.6567 31.424L37.4138 21.6632C37.5851 21.4915 37.7885 21.3552 38.0125 21.2623C38.2365 21.1693 38.4767 21.1215 38.7192 21.1215C38.9617 21.1215 39.2018 21.1693 39.4258 21.2623C39.6498 21.3552 39.8533 21.4915 40.0245 21.6632Z" fill="#3164EA"/>
<path fill-rule="evenodd" clip-rule="evenodd" d="M10.1703 9.77694C9.95918 9.8421 9.77076 9.96549 9.62665 10.1329C9.48324 10.2996 9.38951 10.5031 9.35609 10.7203C7.41255 24.9381 11.898 35.2911 17.2346 42.1046C19.9152 45.5282 22.816 48.0603 25.2252 49.7185C26.4351 50.5469 27.4905 51.1436 28.3109 51.5201C28.7259 51.7097 29.0484 51.832 29.2825 51.9002L29.2956 51.9041C29.3645 51.9262 29.4344 51.9451 29.5051 51.9604C29.5514 51.9506 29.6195 51.9339 29.7117 51.9058C29.9502 51.8329 30.2756 51.7092 30.6899 51.5198C31.5074 51.143 32.5693 50.5465 33.7729 49.72C36.8015 47.5948 39.4951 45.0285 41.7644 42.1063L41.7657 42.1046C47.1023 35.2911 51.5878 24.9381 49.6442 10.7203C49.6108 10.5031 49.5171 10.2995 49.3737 10.1329C49.2296 9.96549 49.0411 9.8421 48.8301 9.77694L48.8254 9.77549C46.5209 9.03921 42.636 7.83997 38.8016 6.8253C34.8579 5.78571 31.3045 5.03125 29.5002 5.03125C27.696 5.03125 24.147 5.78552 20.1998 6.82499C16.8355 7.72944 13.4931 8.71318 10.1752 9.77538L10.1703 9.77694ZM20.0712 6.34181C24.0058 5.30563 27.6195 4.53125 29.5002 4.53125C31.3808 4.53125 34.9982 5.30563 38.9291 6.34181C42.7752 7.35956 46.6692 8.56169 48.9775 9.29919C49.2785 9.39209 49.5472 9.56802 49.7526 9.80676C49.9581 10.0455 50.0921 10.3374 50.1391 10.6488C52.1045 25.019 47.5689 35.5062 42.1593 42.4129C39.8589 45.3752 37.1282 47.9767 34.0579 50.1309C32.8337 50.9716 31.7458 51.5838 30.8977 51.9746C30.47 52.1701 30.1233 52.3028 29.8578 52.3839C29.6483 52.4479 29.5346 52.4639 29.5034 52.4683L29.5002 52.4688C29.379 52.4475 29.2595 52.4179 29.1425 52.3802C28.877 52.3028 28.5303 52.1701 28.1026 51.9746C27.2508 51.5838 26.1703 50.9716 24.9424 50.1309C22.4939 48.4457 19.555 45.8792 16.841 42.4129C11.4314 35.5062 6.89578 25.019 8.86122 10.6488C8.90826 10.3374 9.04221 10.0455 9.24768 9.80676C9.45316 9.56802 9.72181 9.39209 10.0228 9.29919C13.3485 8.23446 16.6989 7.24839 20.0712 6.34181ZM18.9976 2.29679L18.9993 2.29632C22.8338 1.28165 26.9792 0.34375 29.5002 0.34375C32.0174 0.34375 36.1665 1.28163 40.001 2.29632L40.0028 2.29679C43.4408 3.21988 46.8566 4.22415 50.2472 5.30877C52.3718 5.98508 53.9778 7.81755 54.2888 10.083C56.4222 25.7095 51.472 37.3107 45.4593 44.9921C42.8972 48.288 39.8555 51.1812 36.4356 53.5752C35.2376 54.4144 33.9712 55.1513 32.6497 55.7783L32.6441 55.781C31.639 56.2426 30.493 56.6562 29.5002 56.6562C28.5073 56.6562 27.3613 56.2425 26.3562 55.7809L26.3507 55.7784C25.0289 55.1519 23.7623 54.4148 22.5646 53.5751C19.146 51.1808 16.1056 48.2876 13.5447 44.992C7.52443 37.3104 2.57812 25.7096 4.7115 10.0834L4.71179 10.0812C4.86624 8.985 5.32798 7.9549 6.04357 7.11018C6.75891 6.26574 7.69869 5.64108 8.7542 5.30843C12.1444 4.22397 15.5599 3.21981 18.9976 2.29679ZM8.90547 5.785C7.9396 6.0892 7.07962 6.6607 6.42508 7.43337C5.77053 8.20603 5.34818 9.14826 5.20691 10.151C3.09397 25.6274 7.99097 37.0956 13.9389 44.6844C16.4694 47.941 19.4736 50.7998 22.8516 53.1657C24.0263 53.9893 25.2685 54.7121 26.5649 55.3266C27.5605 55.7838 28.6225 56.1562 29.5002 56.1562C30.3778 56.1562 31.4398 55.7838 32.4354 55.3266C33.7315 54.7116 34.9737 53.9888 36.1487 53.1657C39.528 50.8001 42.5336 47.9413 45.0651 44.6844C51.0057 37.0956 55.9063 25.6274 53.7934 10.151C53.5095 8.08231 52.0418 6.4045 50.0948 5.785C46.7118 4.70278 43.3036 3.70073 39.8731 2.77969C36.027 1.76194 31.9413 0.84375 29.5002 0.84375C27.0553 0.84375 22.9733 1.76194 19.1272 2.77969C15.6968 3.70076 12.2886 4.70281 8.90547 5.785ZM23.4308 27.1944L27.6567 31.424L37.4138 21.6632C37.5851 21.4915 37.7885 21.3552 38.0125 21.2623C38.2365 21.1693 38.4767 21.1215 38.7192 21.1215C38.9617 21.1215 39.2018 21.1693 39.4258 21.2623C39.6498 21.3552 39.8533 21.4915 40.0245 21.6632C40.1962 21.8344 40.3325 22.0379 40.4254 22.2619C40.5184 22.4859 40.5662 22.726 40.5662 22.9685C40.5662 23.211 40.5184 23.4512 40.4254 23.6752C40.3325 23.8992 40.1962 24.1026 40.0245 24.2739L28.962 35.3364C28.7908 35.5081 28.5873 35.6443 28.3633 35.7373C28.1393 35.8302 27.8992 35.8781 27.6567 35.8781C27.4142 35.8781 27.174 35.8302 26.95 35.7373C26.726 35.6443 26.5226 35.5081 26.3513 35.3364L20.82 29.8052C20.6486 29.6337 20.5126 29.4302 20.4199 29.2062C20.3271 28.9823 20.2793 28.7422 20.2793 28.4998C20.2793 28.2573 20.3271 28.0173 20.4199 27.7933C20.5126 27.5693 20.6486 27.3658 20.82 27.1944C20.9915 27.023 21.195 26.887 21.419 26.7942C21.6429 26.7014 21.883 26.6537 22.1254 26.6537C22.3679 26.6537 22.6079 26.7014 22.8319 26.7942C23.0559 26.887 23.2594 27.023 23.4308 27.1944ZM25.9973 35.6895L20.4665 30.1587C20.2486 29.9409 20.0758 29.6822 19.9579 29.3976C19.84 29.1129 19.7793 28.8079 19.7793 28.4998C19.7793 28.1917 19.84 27.8866 19.9579 27.602C20.0758 27.3173 20.2486 27.0587 20.4665 26.8409C20.6843 26.623 20.943 26.4502 21.2276 26.3323C21.5123 26.2144 21.8173 26.1537 22.1254 26.1537C22.4335 26.1537 22.7386 26.2144 23.0232 26.3323C23.3079 26.4502 23.5665 26.623 23.7843 26.8409L27.6568 30.7166L37.0598 21.31C37.2775 21.0918 37.5361 20.9186 37.8209 20.8005C38.1056 20.6823 38.4109 20.6215 38.7192 20.6215C39.0275 20.6215 39.3327 20.6823 39.6175 20.8005C39.9018 20.9184 40.1601 21.0913 40.3777 21.3092C40.5959 21.5269 40.7691 21.7855 40.8872 22.0702C41.0054 22.355 41.0662 22.6602 41.0662 22.9685C41.0662 23.2768 41.0054 23.5821 40.8872 23.8668C40.7691 24.1516 40.5959 24.4102 40.3777 24.6279L29.316 35.6895C29.0983 35.9078 28.8397 36.0809 28.555 36.1991C28.2702 36.3173 27.965 36.3781 27.6567 36.3781C27.3484 36.3781 27.0431 36.3173 26.7584 36.1991C26.4736 36.0809 26.215 35.9078 25.9973 35.6895Z" fill="#3164EA"/>
</g>
<defs>
<filter id="filter0_d" x="0.206543" y="0.34375" width="58.587" height="64.3125" filterUnits="userSpaceOnUse" color-interpolation-filters="sRGB">
<feFlood flood-opacity="0" result="BackgroundImageFix"/>
<feColorMatrix in="SourceAlpha" type="matrix" values="0 0 0 0 0 0 0 0 0 0 0 0 0 0 0 0 0 0 127 0"/>
<feOffset dy="4"/>
<feGaussianBlur stdDeviation="2"/>
<feColorMatrix type="matrix" values="0 0 0 0 0.192157 0 0 0 0 0.392157 0 0 0 0 0.917647 0 0 0 0.4 0"/>
<feBlend mode="normal" in2="BackgroundImageFix" result="effect1_dropShadow"/>
<feBlend mode="normal" in="SourceGraphic" in2="effect1_dropShadow" result="shape"/>
</filter>
</defs>
</svg>
