<svg width="192" height="8" viewBox="0 0 192 8" fill="none" xmlns="http://www.w3.org/2000/svg">
<path d="M3.80326 0.0936594H4.36867V2.47179C4.72391 1.96685 5.23508 1.71437 5.90218 1.71437C6.54487 1.71437 7.08316 1.93291 7.51704 2.36999C7.95364 2.80706 8.17194 3.36766 8.17194 4.05178C8.17194 4.72776 7.95228 5.28293 7.51297 5.71729C7.07367 6.15165 6.54216 6.36883 5.91845 6.36883C5.23508 6.36883 4.71849 6.10278 4.36867 5.57069V7.85516H3.80326V5.57069C3.45887 6.1055 2.93821 6.3729 2.24128 6.3729C1.62842 6.3729 1.10098 6.15572 0.658961 5.72136C0.219654 5.287 0 4.73047 0 4.05178C0 3.36766 0.216942 2.80706 0.650826 2.36999C1.08742 1.93291 1.62707 1.71437 2.26976 1.71437C2.95041 1.71437 3.46158 1.96685 3.80326 2.47179V0.0936594ZM4.3524 4.12508C4.3524 4.65446 4.5029 5.06982 4.80391 5.37116C5.10492 5.6725 5.45067 5.82316 5.84116 5.82316C6.37267 5.82316 6.79842 5.6467 7.11841 5.29379C7.4384 4.94087 7.59839 4.51601 7.59839 4.01921C7.59839 3.50612 7.42891 3.0799 7.08994 2.74055C6.75368 2.40121 6.34962 2.23153 5.87777 2.23153C5.45202 2.23153 5.09136 2.38356 4.79578 2.68761C4.50019 2.98895 4.3524 3.46811 4.3524 4.12508ZM0.573541 4.02328C0.573541 4.51736 0.732179 4.94087 1.04946 5.29379C1.36945 5.6467 1.79655 5.82316 2.33077 5.82316C2.51517 5.82316 2.71313 5.77701 2.92465 5.68471C3.13617 5.5897 3.30565 5.4716 3.43311 5.33044C3.56327 5.18655 3.6609 5.02095 3.72598 4.83363C3.79106 4.64632 3.8236 4.37212 3.8236 4.01106C3.8236 3.43553 3.67446 2.99574 3.37616 2.69169C3.07787 2.38492 2.7172 2.23153 2.29416 2.23153C1.8196 2.23153 1.41419 2.40121 1.07793 2.74055C0.741671 3.0799 0.573541 3.50747 0.573541 4.02328Z" fill="white"/>
<path d="M12.9514 4.76441L13.4314 5.01688C13.2741 5.32636 13.0925 5.57612 12.8864 5.76615C12.6803 5.95619 12.4484 6.10143 12.1908 6.20187C11.9332 6.2996 11.6417 6.34847 11.3162 6.34847C10.5949 6.34847 10.0309 6.11229 9.62409 5.63992C9.21732 5.16483 9.01394 4.62867 9.01394 4.03142C9.01394 3.46947 9.18614 2.96859 9.53053 2.5288C9.96713 1.96956 10.5515 1.68994 11.2837 1.68994C12.0376 1.68994 12.6396 1.97635 13.0897 2.54916C13.4097 2.95366 13.5724 3.45861 13.5779 4.064H9.59968C9.61053 4.5798 9.77459 5.00331 10.0919 5.33451C10.4091 5.66299 10.801 5.82724 11.2674 5.82724C11.4925 5.82724 11.7108 5.78787 11.9223 5.70914C12.1366 5.63042 12.3182 5.5259 12.4674 5.39559C12.6165 5.26528 12.7779 5.05489 12.9514 4.76441ZM12.9514 3.57127C12.8755 3.26722 12.7643 3.02425 12.6179 2.84236C12.4742 2.66047 12.283 2.51387 12.0444 2.40256C11.8057 2.29126 11.5549 2.23561 11.2918 2.23561C10.8579 2.23561 10.4851 2.37542 10.1732 2.65504C9.94544 2.85864 9.77324 3.16406 9.65663 3.57127H12.9514Z" fill="white"/>
<path d="M14.6802 5.74987L16.3886 1.80396H16.6856L18.3818 5.74987H18.9146V6.80048H18.3655V6.23445H14.7046V6.82491H14.1433V5.74987H14.6802ZM16.5269 2.68354L15.2334 5.74987H17.7676L16.5269 2.68354Z" fill="white"/>
<path d="M23.4135 4.76441L23.8935 5.01688C23.7362 5.32636 23.5545 5.57612 23.3484 5.76615C23.1423 5.95619 22.9104 6.10143 22.6528 6.20187C22.3952 6.2996 22.1037 6.34847 21.7783 6.34847C21.0569 6.34847 20.4929 6.11229 20.0861 5.63992C19.6794 5.16483 19.476 4.62867 19.476 4.03142C19.476 3.46947 19.6482 2.96859 19.9926 2.5288C20.4292 1.96956 21.0135 1.68994 21.7457 1.68994C22.4996 1.68994 23.1016 1.97635 23.5518 2.54916C23.8718 2.95366 24.0345 3.45861 24.0399 4.064H20.0617C20.0726 4.5798 20.2366 5.00331 20.5539 5.33451C20.8712 5.66299 21.263 5.82724 21.7295 5.82724C21.9545 5.82724 22.1728 5.78787 22.3843 5.70914C22.5986 5.63042 22.7803 5.5259 22.9294 5.39559C23.0786 5.26528 23.2399 5.05489 23.4135 4.76441ZM23.4135 3.57127C23.3375 3.26722 23.2264 3.02425 23.0799 2.84236C22.9362 2.66047 22.745 2.51387 22.5064 2.40256C22.2677 2.29126 22.0169 2.23561 21.7539 2.23561C21.32 2.23561 20.9471 2.37542 20.6353 2.65504C20.4075 2.85864 20.2353 3.16406 20.1187 3.57127H23.4135Z" fill="white"/>
<path d="M25.1138 1.80396H25.6792V2.61839C25.9042 2.30891 26.1632 2.07679 26.4561 1.92205C26.749 1.76731 27.0757 1.68994 27.4364 1.68994C28.0655 1.68994 28.6038 1.91662 29.0512 2.36999C29.4987 2.82335 29.7224 3.36902 29.7224 4.00699C29.7224 4.65853 29.5 5.21234 29.0553 5.66842C28.6133 6.12179 28.0791 6.34847 27.4527 6.34847C27.1001 6.34847 26.7761 6.27517 26.4805 6.12857C26.1849 5.98198 25.9178 5.76344 25.6792 5.47296V7.85516H25.1138V1.80396ZM27.3916 2.23968C26.8981 2.23968 26.4818 2.41207 26.1429 2.75684C25.8066 3.10162 25.6385 3.53055 25.6385 4.04364C25.6385 4.38027 25.7131 4.68296 25.8622 4.95173C26.0141 5.22049 26.2296 5.4336 26.509 5.59105C26.791 5.74851 27.0879 5.82724 27.3998 5.82724C27.7062 5.82724 27.9937 5.74851 28.2621 5.59105C28.5333 5.43088 28.7489 5.20827 28.9089 4.92322C29.0689 4.63817 29.1489 4.33955 29.1489 4.02735C29.1489 3.71244 29.0689 3.41381 28.9089 3.13148C28.7516 2.84914 28.5387 2.6306 28.2703 2.47586C28.0018 2.31841 27.7089 2.23968 27.3916 2.23968Z" fill="white"/>
<path d="M35.2016 1.80396V6.23445H34.6402V5.47296C34.4016 5.76344 34.1331 5.98198 33.8348 6.12857C33.5392 6.27517 33.2152 6.34847 32.8626 6.34847C32.2362 6.34847 31.7007 6.12179 31.2559 5.66842C30.8139 5.21234 30.5929 4.65853 30.5929 4.00699C30.5929 3.36902 30.8166 2.82335 31.2641 2.36999C31.7115 1.91662 32.2498 1.68994 32.8789 1.68994C33.2423 1.68994 33.5704 1.76731 33.8633 1.92205C34.1589 2.07679 34.4179 2.30891 34.6402 2.61839V1.80396H35.2016ZM32.9237 2.23968C32.6064 2.23968 32.3135 2.31841 32.045 2.47586C31.7766 2.6306 31.5624 2.84914 31.4024 3.13148C31.2451 3.41381 31.1664 3.71244 31.1664 4.02735C31.1664 4.33955 31.2464 4.63817 31.4064 4.92322C31.5664 5.20827 31.7806 5.43088 32.0491 5.59105C32.3203 5.74851 32.6105 5.82724 32.9196 5.82724C33.2315 5.82724 33.527 5.74851 33.8063 5.59105C34.0857 5.4336 34.2999 5.22049 34.449 4.95173C34.6009 4.68296 34.6768 4.38027 34.6768 4.04364C34.6768 3.53055 34.5073 3.10162 34.1684 2.75684C33.8321 2.41207 33.4172 2.23968 32.9237 2.23968Z" fill="white"/>
<path d="M40.2333 6.23445H39.6272L38.1465 3.00931L36.6781 6.23445H36.068L38.0937 1.80396H38.1954L40.2333 6.23445Z" fill="white"/>
<path d="M41.6732 3.55905H42.2142C42.6454 3.55905 42.983 3.59299 43.2271 3.66086C43.4711 3.72873 43.6813 3.8794 43.8575 4.11286C44.0338 4.34362 44.1219 4.60967 44.1219 4.911C44.1219 5.27478 43.9945 5.58698 43.7396 5.8476C43.4847 6.1055 43.0982 6.23445 42.5803 6.23445H41.1078V1.80396H41.6732V3.55905ZM41.6935 4.08029V5.75394H42.3484C43.1186 5.75394 43.5037 5.48246 43.5037 4.93951C43.5037 4.78477 43.4616 4.63274 43.3776 4.48343C43.2962 4.33412 43.1755 4.2296 43.0155 4.16987C42.8583 4.11015 42.5789 4.08029 42.1776 4.08029H41.6935Z" fill="white"/>
<path d="M48.1815 4.10065H45.6107V6.23445H45.0372V1.80396H45.6107V3.56313H48.1815V1.80396H48.7509V6.23445H48.1815V4.10065Z" fill="white"/>
<path d="M54.4335 1.80396V6.23445H53.8721V5.47296C53.6335 5.76344 53.365 5.98198 53.0667 6.12857C52.7712 6.27517 52.4471 6.34847 52.0946 6.34847C51.4681 6.34847 50.9326 6.12179 50.4878 5.66842C50.0458 5.21234 49.8248 4.65853 49.8248 4.00699C49.8248 3.36902 50.0485 2.82335 50.496 2.36999C50.9434 1.91662 51.4817 1.68994 52.1108 1.68994C52.4742 1.68994 52.8023 1.76731 53.0952 1.92205C53.3908 2.07679 53.6498 2.30891 53.8721 2.61839V1.80396H54.4335ZM52.1556 2.23968C51.8383 2.23968 51.5454 2.31841 51.277 2.47586C51.0085 2.6306 50.7943 2.84914 50.6343 3.13148C50.477 3.41381 50.3983 3.71244 50.3983 4.02735C50.3983 4.33955 50.4783 4.63817 50.6383 4.92322C50.7983 5.20827 51.0126 5.43088 51.281 5.59105C51.5522 5.74851 51.8424 5.82724 52.1515 5.82724C52.4634 5.82724 52.7589 5.74851 53.0383 5.59105C53.3176 5.4336 53.5318 5.22049 53.681 4.95173C53.8328 4.68296 53.9087 4.38027 53.9087 4.04364C53.9087 3.53055 53.7393 3.10162 53.4003 2.75684C53.064 2.41207 52.6491 2.23968 52.1556 2.23968Z" fill="white"/>
<path d="M57.5859 4.25132H57.1791L55.9182 6.23445H55.3039L56.6341 4.19431C56.3032 4.15359 56.0348 4.02871 55.8287 3.81967C55.6226 3.60792 55.5195 3.34594 55.5195 3.03375C55.5195 2.64282 55.6375 2.34012 55.8734 2.12566C56.1121 1.91119 56.4239 1.80396 56.809 1.80396H58.1554V6.23445H57.5859V4.25132ZM57.5859 2.29669H57.2117C56.8483 2.29669 56.6042 2.31976 56.4795 2.36592C56.3548 2.41207 56.2558 2.49215 56.1826 2.60617C56.1093 2.71748 56.0727 2.86815 56.0727 3.05818C56.0727 3.24007 56.1202 3.39074 56.2151 3.51019C56.31 3.62692 56.4158 3.69886 56.5324 3.72601C56.649 3.75316 56.8754 3.76673 57.2117 3.76673H57.5859V2.29669Z" fill="white"/>
<path d="M66.0344 2.72426L65.5829 3.00524C65.1924 2.48672 64.6596 2.22746 63.9843 2.22746C63.4447 2.22746 62.9959 2.40121 62.6379 2.7487C62.2827 3.09619 62.1051 3.51833 62.1051 4.01513C62.1051 4.33819 62.1864 4.64224 62.3491 4.92729C62.5146 5.21234 62.7396 5.4336 63.0244 5.59105C63.3118 5.74851 63.6332 5.82724 63.9884 5.82724C64.6392 5.82724 65.1707 5.56798 65.5829 5.04946L66.0344 5.34672C65.8229 5.66435 65.5382 5.91139 65.1802 6.08785C64.825 6.2616 64.4196 6.34847 63.964 6.34847C63.2644 6.34847 62.684 6.12586 62.223 5.68064C61.762 5.23542 61.5315 4.69382 61.5315 4.05585C61.5315 3.62692 61.6387 3.22921 61.8529 2.86272C62.0698 2.49351 62.3668 2.20574 62.7437 1.99942C63.1206 1.7931 63.5423 1.68994 64.0087 1.68994C64.3016 1.68994 64.5836 1.73473 64.8548 1.82432C65.1287 1.91391 65.3606 2.03064 65.5504 2.17452C65.7402 2.31841 65.9016 2.50165 66.0344 2.72426Z" fill="white"/>
<path d="M70.879 6.23445H70.2729L68.7923 3.00931L67.3239 6.23445H66.7137L68.7394 1.80396H68.8411L70.879 6.23445Z" fill="white"/>
<path d="M71.2777 1.80396H71.8797L73.401 5.21642L74.8775 1.80396H75.4836L72.8437 7.85516H72.2417L73.0959 5.90054L71.2777 1.80396Z" fill="white"/>
<path d="M78.4896 1.80396H79.0672V3.76266L81.1824 1.80396H81.878L79.7872 3.77895L82.0366 6.23445H81.3085L79.3927 4.0925L79.0672 4.36534V6.23445H78.4896V4.36534L78.1724 4.0925L76.2646 6.23445H75.5365L77.7615 3.77895L75.7033 1.80396H76.3989L78.4896 3.76266V1.80396Z" fill="white"/>
<path d="M86.8649 0V0.545667C86.5938 0.591818 86.1287 0.624395 85.4697 0.643399C84.9925 0.659687 84.6237 0.692264 84.3633 0.74113C84.1057 0.787281 83.8806 0.878226 83.6881 1.01396C83.4956 1.14699 83.3329 1.35059 83.2 1.62479C83.0698 1.89626 82.9885 2.20031 82.9559 2.53695L82.899 3.15998C83.0535 2.65232 83.3071 2.2804 83.6596 2.04422C84.0149 1.80803 84.4081 1.68994 84.8392 1.68994C85.4955 1.68994 86.0433 1.92069 86.4826 2.3822C86.9246 2.84371 87.1456 3.39345 87.1456 4.03142C87.1456 4.66396 86.926 5.20827 86.4867 5.66435C86.0473 6.12043 85.4982 6.34847 84.8392 6.34847C84.164 6.34847 83.5918 6.096 83.1227 5.59105C82.6536 5.08611 82.419 4.29068 82.419 3.20478C82.419 2.44736 82.5044 1.87454 82.6753 1.48633C82.8488 1.09541 83.0468 0.814429 83.2691 0.643399C83.4915 0.472369 83.7789 0.337988 84.1315 0.240257C84.484 0.142525 85.1443 0.0814429 86.1124 0.05701C86.4107 0.0488657 86.6616 0.0298624 86.8649 0ZM86.568 4.04364C86.568 3.55227 86.3972 3.13012 86.0555 2.7772C85.7138 2.42428 85.3084 2.24782 84.8392 2.24782C84.3728 2.24782 83.9688 2.42428 83.6271 2.7772C83.2854 3.13012 83.1146 3.55227 83.1146 4.04364C83.1146 4.53229 83.2786 4.94901 83.6067 5.29379C83.9376 5.63585 84.3484 5.80688 84.8392 5.80688C85.3328 5.80688 85.7436 5.63585 86.0718 5.29379C86.4026 4.94901 86.568 4.53229 86.568 4.04364Z" fill="white"/>
<path d="M92.6126 1.80396V6.23445H92.0512V5.47296C91.8126 5.76344 91.5441 5.98198 91.2458 6.12857C90.9502 6.27517 90.6262 6.34847 90.2737 6.34847C89.6472 6.34847 89.1117 6.12179 88.6669 5.66842C88.2249 5.21234 88.0039 4.65853 88.0039 4.00699C88.0039 3.36902 88.2276 2.82335 88.6751 2.36999C89.1225 1.91662 89.6608 1.68994 90.2899 1.68994C90.6533 1.68994 90.9814 1.76731 91.2743 1.92205C91.5699 2.07679 91.8289 2.30891 92.0512 2.61839V1.80396H92.6126ZM90.3347 2.23968C90.0174 2.23968 89.7245 2.31841 89.456 2.47586C89.1876 2.6306 88.9734 2.84914 88.8134 3.13148C88.6561 3.41381 88.5774 3.71244 88.5774 4.02735C88.5774 4.33955 88.6574 4.63817 88.8174 4.92322C88.9774 5.20827 89.1916 5.43088 89.4601 5.59105C89.7313 5.74851 90.0215 5.82724 90.3306 5.82724C90.6425 5.82724 90.938 5.74851 91.2173 5.59105C91.4967 5.4336 91.7109 5.22049 91.86 4.95173C92.0119 4.68296 92.0878 4.38027 92.0878 4.04364C92.0878 3.53055 91.9183 3.10162 91.5794 2.75684C91.2431 2.41207 90.8282 2.23968 90.3347 2.23968Z" fill="white"/>
<path d="M97.4756 6.21002H96.9021V1.77953H97.4756V3.6405H98.216C98.3163 3.04868 98.5793 2.57224 99.0051 2.21117C99.4335 1.8474 99.9311 1.66551 100.498 1.66551C101.154 1.66551 101.702 1.89626 102.141 2.35777C102.583 2.81928 102.804 3.36902 102.804 4.00699C102.804 4.63953 102.585 5.18384 102.145 5.63992C101.706 6.096 101.158 6.32404 100.502 6.32404C99.9162 6.32404 99.4037 6.13265 98.9644 5.74987C98.5278 5.36437 98.2783 4.84856 98.216 4.20245H97.4756V6.21002ZM102.227 4.0192C102.227 3.52783 102.056 3.10569 101.714 2.75277C101.372 2.39985 100.968 2.22339 100.502 2.22339C100.033 2.22339 99.6274 2.39985 99.2857 2.75277C98.9441 3.10569 98.7732 3.52783 98.7732 4.0192C98.7732 4.50786 98.9359 4.92458 99.2613 5.26935C99.5895 5.61141 100.003 5.78244 100.502 5.78244C100.993 5.78244 101.402 5.61141 101.73 5.26935C102.061 4.92458 102.227 4.50786 102.227 4.0192Z" fill="white"/>
<path d="M103.87 1.77953H104.435V2.59396C104.66 2.28447 104.919 2.05236 105.212 1.89762C105.505 1.74288 105.832 1.66551 106.193 1.66551C106.822 1.66551 107.36 1.89219 107.807 2.34555C108.255 2.79892 108.479 3.34459 108.479 3.98256C108.479 4.6341 108.256 5.18791 107.812 5.64399C107.37 6.09736 106.835 6.32404 106.209 6.32404C105.856 6.32404 105.532 6.25074 105.237 6.10414C104.941 5.95754 104.674 5.73901 104.435 5.44853V7.83073H103.87V1.77953ZM106.148 2.21525C105.654 2.21525 105.238 2.38763 104.899 2.73241C104.563 3.07718 104.395 3.50611 104.395 4.0192C104.395 4.35584 104.469 4.65853 104.618 4.92729C104.77 5.19605 104.986 5.40916 105.265 5.56662C105.547 5.72408 105.844 5.8028 106.156 5.8028C106.462 5.8028 106.75 5.72408 107.018 5.56662C107.29 5.40645 107.505 5.18384 107.665 4.89879C107.825 4.61374 107.905 4.31511 107.905 4.00292C107.905 3.688 107.825 3.38938 107.665 3.10705C107.508 2.82471 107.295 2.60617 107.027 2.45143C106.758 2.29397 106.465 2.21525 106.148 2.21525Z" fill="white"/>
<path d="M110.118 1.77953V5.0576L113.368 1.77953H113.413V6.21002H112.843V2.96045L109.618 6.21002H109.548V1.77953H110.118Z" fill="white"/>
<path d="M114.718 5.72543L116.427 1.77953H116.724L118.42 5.72543H118.953V6.77605H118.404V6.21002H114.743V6.80048H114.182V5.72543H114.718ZM116.565 2.65911L115.272 5.72543H117.806L116.565 2.65911Z" fill="white"/>
<path d="M120.295 1.77953V5.0576L123.545 1.77953H123.59V6.21002H123.021V2.96045L119.795 6.21002H119.726V1.77953H120.295Z" fill="white"/>
<path d="M126.84 4.2106H125.839C125.387 4.2106 125.05 4.09386 124.831 3.86039C124.614 3.62692 124.505 3.30251 124.505 2.88715V1.77953H125.063V2.58174C125.063 3.09754 125.136 3.41789 125.282 3.54276C125.429 3.66493 125.67 3.72601 126.006 3.72601H126.84V1.77953H127.405V6.21002H126.84V4.2106Z" fill="white"/>
<path d="M132.401 4.73997L132.881 4.99245C132.723 5.30193 132.542 5.55169 132.336 5.74172C132.129 5.93175 131.898 6.07699 131.64 6.17744C131.382 6.27517 131.091 6.32404 130.765 6.32404C130.044 6.32404 129.48 6.08785 129.073 5.61549C128.666 5.1404 128.463 4.60424 128.463 4.00699C128.463 3.44503 128.635 2.94416 128.98 2.50437C129.416 1.94513 130.001 1.66551 130.733 1.66551C131.487 1.66551 132.089 1.95191 132.539 2.52473C132.859 2.92923 133.022 3.43417 133.027 4.03957H129.049C129.06 4.55537 129.224 4.97887 129.541 5.31007C129.858 5.63856 130.25 5.8028 130.717 5.8028C130.942 5.8028 131.16 5.76344 131.371 5.68471C131.586 5.60598 131.767 5.50146 131.917 5.37116C132.066 5.24085 132.227 5.03045 132.401 4.73997ZM132.401 3.54684C132.325 3.24278 132.213 2.99981 132.067 2.81792C131.923 2.63603 131.732 2.48944 131.493 2.37813C131.255 2.26683 131.004 2.21117 130.741 2.21117C130.307 2.21117 129.934 2.35098 129.622 2.6306C129.395 2.83421 129.222 3.13962 129.106 3.54684H132.401Z" fill="white"/>
<path d="M138.388 2.69983L137.937 2.98081C137.546 2.46229 137.013 2.20303 136.338 2.20303C135.798 2.20303 135.35 2.37677 134.992 2.72426C134.636 3.07175 134.459 3.4939 134.459 3.9907C134.459 4.31376 134.54 4.61781 134.703 4.90286C134.868 5.18791 135.093 5.40916 135.378 5.56662C135.666 5.72408 135.987 5.8028 136.342 5.8028C136.993 5.8028 137.524 5.54354 137.937 5.02502L138.388 5.32229C138.177 5.63992 137.892 5.88696 137.534 6.06342C137.179 6.23717 136.773 6.32404 136.318 6.32404C135.618 6.32404 135.038 6.10143 134.577 5.65621C134.116 5.21099 133.885 4.66939 133.885 4.03142C133.885 3.60249 133.992 3.20478 134.207 2.83828C134.424 2.46908 134.721 2.18131 135.097 1.97499C135.474 1.76867 135.896 1.66551 136.362 1.66551C136.655 1.66551 136.937 1.7103 137.209 1.79989C137.482 1.88947 137.714 2.00621 137.904 2.15009C138.094 2.29397 138.255 2.47722 138.388 2.69983Z" fill="white"/>
<path d="M139.486 1.77953H140.06V3.64457L142.106 1.77953H142.899L140.658 3.80745L143.078 6.21002H142.273L140.239 4.16173L140.06 4.32054V6.21002H139.486V1.77953Z" fill="white"/>
<path d="M145.763 1.66551C146.444 1.66551 147.008 1.91255 147.455 2.40664C147.862 2.85729 148.065 3.39074 148.065 4.00699C148.065 4.62595 147.85 5.16755 147.418 5.63177C146.99 6.09328 146.438 6.32404 145.763 6.32404C145.085 6.32404 144.53 6.09328 144.099 5.63177C143.671 5.16755 143.456 4.62595 143.456 4.00699C143.456 3.39345 143.66 2.86136 144.067 2.41071C144.514 1.91391 145.079 1.66551 145.763 1.66551ZM145.763 2.22339C145.291 2.22339 144.886 2.39849 144.547 2.7487C144.208 3.0989 144.038 3.5224 144.038 4.0192C144.038 4.33955 144.115 4.63817 144.27 4.91508C144.425 5.19198 144.633 5.40645 144.896 5.55848C145.159 5.70779 145.448 5.78244 145.763 5.78244C146.077 5.78244 146.366 5.70779 146.629 5.55848C146.892 5.40645 147.101 5.19198 147.256 4.91508C147.41 4.63817 147.488 4.33955 147.488 4.0192C147.488 3.5224 147.317 3.0989 146.975 2.7487C146.636 2.39849 146.232 2.22339 145.763 2.22339Z" fill="white"/>
<path d="M149.696 1.77953V5.0576L152.946 1.77953H152.991V6.21002H152.422V2.96045L149.196 6.21002H149.127V1.77953H149.696ZM149.619 0H150.156C150.248 0.141168 150.372 0.247043 150.526 0.317627C150.681 0.388211 150.865 0.423503 151.079 0.423503C151.296 0.423503 151.471 0.392283 151.604 0.329844C151.737 0.267404 151.863 0.157456 151.982 0H152.503C152.443 0.244329 152.29 0.449293 152.043 0.614894C151.799 0.777779 151.477 0.859222 151.075 0.859222C150.677 0.859222 150.351 0.779137 150.099 0.618966C149.847 0.45608 149.687 0.249758 149.619 0Z" fill="white"/>
<path d="M156.571 1.77953H160.284V6.21002H159.715V2.31705H157.14V6.21002H156.571V1.77953Z" fill="white"/>
<path d="M163.652 1.66551C164.333 1.66551 164.897 1.91255 165.345 2.40664C165.751 2.85729 165.955 3.39074 165.955 4.00699C165.955 4.62595 165.739 5.16755 165.308 5.63177C164.88 6.09328 164.328 6.32404 163.652 6.32404C162.975 6.32404 162.42 6.09328 161.989 5.63177C161.56 5.16755 161.346 4.62595 161.346 4.00699C161.346 3.39345 161.549 2.86136 161.956 2.41071C162.404 1.91391 162.969 1.66551 163.652 1.66551ZM163.652 2.22339C163.181 2.22339 162.775 2.39849 162.436 2.7487C162.097 3.0989 161.928 3.5224 161.928 4.0192C161.928 4.33955 162.005 4.63817 162.16 4.91508C162.314 5.19198 162.523 5.40645 162.786 5.55848C163.049 5.70779 163.338 5.78244 163.652 5.78244C163.967 5.78244 164.256 5.70779 164.519 5.55848C164.782 5.40645 164.991 5.19198 165.145 4.91508C165.3 4.63817 165.377 4.33955 165.377 4.0192C165.377 3.5224 165.206 3.0989 164.865 2.7487C164.526 2.39849 164.122 2.22339 163.652 2.22339Z" fill="white"/>
<path d="M171.82 1.77953H171.983L173.484 6.21002H172.89L171.796 2.94823L170.096 6.21002H169.99L168.286 2.94823L167.195 6.21002H166.602L168.111 1.77953H168.265L170.047 5.24492L171.82 1.77953Z" fill="white"/>
<path d="M176.433 1.66551C177.114 1.66551 177.678 1.91255 178.125 2.40664C178.532 2.85729 178.735 3.39074 178.735 4.00699C178.735 4.62595 178.52 5.16755 178.089 5.63177C177.66 6.09328 177.108 6.32404 176.433 6.32404C175.755 6.32404 175.201 6.09328 174.769 5.63177C174.341 5.16755 174.127 4.62595 174.127 4.00699C174.127 3.39345 174.33 2.86136 174.737 2.41071C175.184 1.91391 175.75 1.66551 176.433 1.66551ZM176.433 2.22339C175.961 2.22339 175.556 2.39849 175.217 2.7487C174.878 3.0989 174.708 3.5224 174.708 4.0192C174.708 4.33955 174.786 4.63817 174.94 4.91508C175.095 5.19198 175.304 5.40645 175.567 5.55848C175.83 5.70779 176.118 5.78244 176.433 5.78244C176.748 5.78244 177.036 5.70779 177.299 5.55848C177.562 5.40645 177.771 5.19198 177.926 4.91508C178.08 4.63817 178.158 4.33955 178.158 4.0192C178.158 3.5224 177.987 3.0989 177.645 2.7487C177.306 2.39849 176.902 2.22339 176.433 2.22339Z" fill="white"/>
<path d="M186.83 6.21002H179.797V1.77953H180.371V5.67249H182.811V1.77953H183.389V5.67249H185.829V1.77953H186.411V5.67249H187.371V6.91043H186.83V6.21002Z" fill="white"/>
<path d="M188.705 1.77953V5.0576L191.955 1.77953H192V6.21002H191.431V2.96045L188.205 6.21002H188.136V1.77953H188.705Z" fill="white"/>
</svg>
